<!DOCTYPE svg PUBLIC "-//W3C//DTD SVG 1.1//EN" "http://www.w3.org/Graphics/SVG/1.1/DTD/svg11.dtd">
<!-- Uploaded to: SVG Repo, www.svgrepo.com, Transformed by: SVG Repo Mixer Tools -->
<svg fill="#673AB7FF" height="800px" width="800px" version="1.1" id="Layer_1" xmlns="http://www.w3.org/2000/svg" xmlns:xlink="http://www.w3.org/1999/xlink" viewBox="0 0 480 480" xml:space="preserve" stroke="#673AB7FF" stroke-width="0.0048000000000000004">
<g id="SVGRepo_bgCarrier" stroke-width="0"/>
<g id="SVGRepo_tracerCarrier" stroke-linecap="round" stroke-linejoin="round"/>
<g id="SVGRepo_iconCarrier"> <g> <g> <g> <path d="M272,320c-4.424,0-8,3.576-8,8v112c0,13.232-10.768,24-24,24H72c-13.232,0-24-10.768-24-24V40c0-13.232,10.768-24,24-24 h168c13.232,0,24,10.768,24,24v32c0,4.424,3.576,8,8,8s8-3.576,8-8V40c0-22.056-17.944-40-40-40H72C49.944,0,32,17.944,32,40v400 c0,22.056,17.944,40,40,40h168c22.056,0,40-17.944,40-40V328C280,323.576,276.424,320,272,320z"/> <path d="M88,80h136c2.856,0,5.504,1.512,6.888,3.952c2.176,3.84,7.056,5.2,10.904,3c3.84-2.176,5.184-7.064,3-10.904 C240.576,68.616,232.608,64,224,64H88c-13.232,0-24,10.768-24,24v264c0,13.232,10.768,24,24,24h136c13.232,0,24-10.768,24-24 c0-4.424-3.576-8-8-8s-8,3.576-8,8c0,4.416-3.584,8-8,8H88c-4.416,0-8-3.584-8-8V88C80,83.584,83.584,80,88,80z"/> <path d="M168,48c4.424,0,8-3.576,8-8s-3.576-8-8-8h-32c-4.424,0-8,3.576-8,8s3.576,8,8,8H168z"/> <path d="M132.24,418.8c0,12.968,10.544,23.52,23.512,23.52c12.968,0,23.52-10.552,23.52-23.52 c0-12.968-10.552-23.512-23.52-23.512S132.24,405.832,132.24,418.8z M163.28,418.8c0,4.152-3.376,7.52-7.52,7.52 s-7.512-3.376-7.512-7.52c0-4.144,3.376-7.512,7.512-7.512C159.904,411.28,163.28,414.656,163.28,418.8z"/> <path d="M424,96H192c-13.232,0-24,10.768-24,24v184c0,15.256,8.472,28.976,22.104,35.792c5.696,2.848,11.824,4.256,17.912,4.256 c8.48,0,16.88-2.72,23.984-8.048l42.664-32H424c13.232,0,24-10.768,24-24V120C448,106.768,437.232,96,424,96z M432,280 c0,4.416-3.584,8-8,8H272c-1.736,0-3.416,0.56-4.8,1.6l-44.8,33.6c-7.448,5.576-16.848,6.432-25.152,2.28 C188.952,321.328,184,313.296,184,304V120c0-4.416,3.584-8,8-8h232c4.416,0,8,3.584,8,8V280z"/> <circle cx="216" cy="296" r="8"/> <path d="M400,128h-72h-32h-72c-4.424,0-8,3.576-8,8v128c0,4.424,3.576,8,8,8h72h32h72c4.424,0,8-3.576,8-8V136 C408,131.576,404.424,128,400,128z M304,144h16v16h-16V144z M320,256h-16v-16h16V256z M392,256h-56v-24c0-4.424-3.576-8-8-8h-32 c-4.424,0-8,3.576-8,8v24h-56V144h56v24c0,4.424,3.576,8,8,8h32c4.424,0,8-3.576,8-8v-24h56V256z"/> <path d="M280,184h-24c-4.424,0-8,3.576-8,8s3.576,8,8,8h24c4.424,0,8-3.576,8-8S284.424,184,280,184z"/> <path d="M264,208h-8c-4.424,0-8,3.576-8,8s3.576,8,8,8h8c4.424,0,8-3.576,8-8S268.424,208,264,208z"/> <path d="M338.344,205.656l8,8c1.56,1.56,3.608,2.344,5.656,2.344c2.048,0,4.096-0.784,5.656-2.344l16-16 c3.128-3.128,3.128-8.184,0-11.312s-8.184-3.128-11.312,0L352,196.688l-2.344-2.344c-3.128-3.128-8.184-3.128-11.312,0 C335.216,197.472,335.216,202.528,338.344,205.656z"/> </g> </g> </g> </g>
</svg>